<svg width="808px" height="281px" viewBox="0 0 808 281" version="1.1" xmlns="http://www.w3.org/2000/svg" xmlns:xlink="http://www.w3.org/1999/xlink">
    <g id="Page-1" stroke="none" stroke-width="1" fill="none" fill-rule="evenodd">
        <g id="AL-stacked-vector" transform="translate(0.000000, 1.000000)">
            <path d="M75.41,78.61 C64.11,78.61 45.47,78.23 33.98,77.67 C40.2,63.3 49.05,43.5 56.39,26.33 L56.58,26.33 C60.58,36.78 67.31,55.08 75.41,78.61 M128.7,115.61 C118.9,115.05 117.77,114.87 116.46,113.61 C114.2,111.61 112.69,108.38 109.11,98.86 C87.11,38.74 79.36,15.78 74.84,1.4 C74.66,0.56 73.71,0.38 68.25,0.38 C65.05,0.38 64.49,0.38 64.11,0.75 C52.44,30.62 36.11,67.4 21.56,98.21 C18.92,104.21 15.91,108.67 13.27,111.28 C10.63,113.89 9.13,114.83 0.66,115.57 C0.28,115.76 0.28,116.88 0.66,116.88 C12.71,116.51 27.02,116.51 37.19,116.88 C37.56,116.88 37.75,115.39 37.37,115.39 C25.37,114.45 22.87,113.52 22.87,107.73 C22.958042,104.773764 23.5990979,101.860182 24.76,99.14 C27.58,91.86 29.09,87.94 32.1,81.59 C32.48,80.66 33.23,80.66 33.98,80.66 C39.44,80.47 44.15,80.47 51.68,80.47 C64.68,80.47 73.34,80.66 76.16,80.85 C79.16,89.44 83.51,101.76 85.39,107.36 C86.52,111.09 86.33,112.59 85.58,113.36 C84.45,114.47 81.43,114.85 74.28,115.22 C73.71,115.22 73.71,116.9 74.28,116.9 C85.2,116.53 92.35,116.71 100.28,116.71 C107.28,116.71 118.17,116.9 128.72,117.09 C129.09,117.09 129.09,115.59 128.72,115.59 M227.55,62.59 C227.55,80.7 226.04,90.78 222.65,97.5 C216.82,109.27 205.14,114.87 189.89,114.87 C178.78,114.87 177.09,114.68 176.52,114.12 C175.95,113.56 175.58,110.76 175.58,103.85 C175.39,89.85 175.39,74.54 175.39,61.47 C175.39,48.4 175.58,17.03 175.77,10.47 C175.77,6.92 175.96,6.17 176.33,5.8 C176.52,5.43 178.22,5.24 189.89,5.24 C208.72,5.24 216.25,10.09 220.58,18.68 C225.1,27.46 227.58,42.95 227.58,62.56 M255.82,55.28 C255.82,40.15 250.18,28.58 241.89,20.36 C230.59,9.16 212.89,3.19 191.62,3.19 C182.39,3.19 169.77,3.56 161.68,3.56 C153.2,3.56 143.6,3.37 132.87,3.19 C132.49,3.19 132.49,4.87 132.87,4.87 C145.87,5.05 147.18,5.24 147.56,5.8 C148.5,6.55 149.06,11.03 149.06,22.23 C149.06,35.3 148.87,55.65 148.87,68.16 C148.87,81.23 148.87,97.29 148.69,101.95 C148.69,110.73 148.12,113.53 147.56,114.09 C147.18,114.65 144.92,114.84 132.49,115.02 C131.93,115.02 131.93,116.89 132.49,116.89 C137.39,116.7 145.3,116.7 154.33,116.52 C163.75,116.52 179.94,116.89 190.33,116.89 C211.79,116.89 227.23,108.89 238.72,97.47 C248.13,88.14 255.85,75.82 255.85,55.28 M373.83,4.48 C374.4,4.3 374.21,2.99 373.83,2.99 C359.71,3.55 352,3.36 336,3 C335.43,3 335.24,4.31 335.81,4.31 C349.37,5.43 352.57,7.85 352.57,13.31 C352.57,17.04 351.06,21.52 348.05,29.74 C341.26,47.43 330.9,73 322.81,93 L322.62,93 C313.39,68.36 304.73,45.39 294.75,17.76 C292.12,10.66 291.75,7.68 292.68,6.76 C293.61,5.84 295.68,5.64 305.86,5.08 C306.24,5.08 306.24,3.59 305.86,3.59 C285.71,3.4 264.44,3.78 249,2.84 C248.43,2.84 248.24,4.34 248.81,4.52 C257.66,5.46 259.16,5.83 260.48,7.14 C261.8,8.63 263.48,11.62 265.94,17.59 C284.58,64.64 297.76,98.25 305.11,119.16 C305.48,120.1 306.24,120.47 310.19,120.47 C314.33,120.47 315.09,120.1 315.46,119.35 C328.83,84.25 338.06,60.91 351.05,29.54 C356.32,16.84 359.52,11.62 362.73,8.26 C364.42,6.58 366.49,5.26 373.83,4.52 M414.32,78.65 C403.02,78.65 384.38,78.27 372.89,77.71 C379.11,63.3 388,43.5 395.3,26.33 L395.49,26.33 C399.44,36.78 406.22,55.08 414.32,78.61 M580.55,3 C573.96,3.38 569.44,3.57 564.73,3.57 C558.14,3.57 548.91,3 543.45,2.82 C542.88,2.82 542.69,4.31 543.26,4.31 C553.81,5.06 557.01,5.81 558.51,7.31 C561.15,9.93 562.66,19.82 562.66,44.65 C562.66,53.43 562.47,70.98 562.28,79.76 L562.09,79.76 C546.09,57.54 526.09,29.9 509.17,6 C506.91,2.8 506.53,2.8 505,2.8 C502.37,2.8 494.64,3.17 482,3.17 C476,3.17 467.54,3 461,3 C460.43,3 460.43,4.69 461,4.69 C470,5 473.76,6.16 475.83,8 C476.96,9.3 479.03,12.48 479.03,13 C478.84,44 479.6,63.41 479.6,86.94 C479.6,105.24 478.28,110.47 475.83,112.71 C474.64,113.89 473.28,114.71 464.64,115.33 C457.57,114.89 456.54,114.61 455.37,113.45 C453.11,111.45 451.6,108.22 448.02,98.7 C426.02,38.58 418.27,15.62 413.75,1.24 C413.56,0.49 412.62,0.31 407.16,0.31 C403.96,0.31 403.4,0.31 403.02,0.68 C391.35,30.62 375,67.4 360.47,98.21 C357.83,104.21 354.82,108.67 352.18,111.28 C349.54,113.89 348.04,114.83 339.57,115.57 C339.19,115.76 339.19,116.88 339.57,116.88 C351.62,116.51 365.93,116.51 376.09,116.88 C376.47,116.88 376.66,115.39 376.28,115.39 C364.28,114.45 361.78,113.52 361.78,107.73 C361.868042,104.773764 362.509098,101.860182 363.67,99.14 C366.49,91.86 368,87.94 371.01,81.59 C371.39,80.66 372.14,80.66 372.89,80.66 C378.35,80.47 383.06,80.47 390.59,80.47 C403.59,80.47 412.25,80.66 415.07,80.85 C418.07,89.44 422.41,101.76 424.3,107.36 C425.43,111.09 425.24,112.59 424.49,113.36 C423.36,114.47 420.34,114.85 413.19,115.22 C412.62,115.22 412.62,116.9 413.19,116.9 C424.11,116.53 431.26,116.71 439.19,116.71 L481.88,116.71 C490.16,116.71 494.12,116.71 502.59,117.27 C503.16,117.27 503.16,115.78 502.59,115.78 C489.41,114.84 487.15,114.28 486.02,112.97 C484.32,111.29 482.63,106.81 482.44,90.97 C482.25,66.51 481.31,36.97 481.5,14.97 L481.69,14.97 C504.1,44.84 534.43,85.73 556.69,119.16 C556.88,119.34 557.26,119.34 561.21,119.34 C565.16,119.34 565.36,119.16 565.36,118.78 C565.36,105.53 564.98,94.88 564.98,81.07 C564.98,69.07 565.36,55.67 565.36,43.16 C565.36,12.54 566.67,8.99 568.56,7.16 C569.5,6.23 571.01,5.67 580.8,4.74 C581.37,4.55 581.18,3.05 580.61,3.05 M677.61,106.13 C685.52,98.47 689.67,88.76 691.93,78.13 C692.12,77.38 690.42,77.19 690.23,77.75 C687.98,87.65 683.64,97.17 676.67,104.08 C670.83,109.87 660.85,114.54 649.36,114.54 C634.86,114.54 626.57,109.54 621.49,99.41 C617.15,91.01 615.49,79.06 615.49,63 C615.49,40.78 618.12,28.46 622.49,19.87 C627.01,10.87 634.73,4.75 648.1,4.75 C659.22,4.75 664.3,8.11 669.01,12.75 C675.23,18.91 681.25,31.04 686.34,44.67 C686.53,45.42 688.04,45.23 688.04,44.67 C687.66,34.97 687.66,14.8 688.04,2.1 C688.060301,1.77811964 687.875231,1.47847984 687.578325,1.35251974 C687.281419,1.22655963 686.937345,1.30171419 686.72,1.54 C678.99,10.13 677.49,12.18 675.98,12.18 C674.28,12.18 664.11,2.1 646.22,2.1 C628.14,2.1 614.39,9.76 602.71,21.33 C591.41,32.54 586.51,46.73 586.51,63.16 C586.27644,78.1056278 592.203974,92.4886698 602.9,102.93 C614.01,113.76 628.33,118.43 643.77,118.43 C659.21,118.43 670.52,113.43 677.67,106.11 M806.76,71.51 C806.76,70.58 805.26,70.58 804.88,71.33 C800.55,88.33 794.88,101.39 789.25,106.99 C783.62,112.59 778.32,114.64 771.35,114.64 L757.6,114.64 C748.37,114.64 745.17,114.09 744.8,113.71 C744.23,113.15 743.85,109.23 743.85,80.1 C743.85,74.5 743.67,64.42 743.85,59 C746.68,58.82 751.2,58.82 758.73,58.82 C764.38,58.82 767.73,59.94 769.85,61.99 C772.3,64.42 774.37,69.46 776.85,82.16 C776.964998,82.5105043 777.312425,82.7302086 777.678388,82.6838533 C778.044351,82.6374979 778.326026,82.3381075 778.35,81.97 C777.6,69.97 777.79,51.72 778.16,33.61 C778.16,32.67 776.47,32.67 776.47,33.42 C774.59,46.49 772.7,49.29 770.07,51.91 C767.07,54.91 761.59,56.39 753.49,56.39 C750.1,56.39 747.27,56.39 743.88,56.2 L743.88,27.63 C743.88,8.21 743.88,6.16 744.26,5.97 C744.64,5.41 745.77,5.41 758.76,5.41 C776.09,5.41 780.05,6.91 785.7,12.32 C790.78,17.32 795.12,26.89 800.01,43.88 C800.39,44.81 801.71,44.62 801.71,43.88 C802.27,32.3 802.84,17.36 803.59,5.04 C803.78,3.36 803.4,2.8 802.46,2.8 C782.31,3.55 767.24,3.55 752.92,3.55 C744.64,3.55 711.68,3.17 702.45,2.98 C702.07,2.98 701.88,4.85 702.45,4.85 C713.94,5.23 716.57,5.6 716.95,5.97 C717.33,6.34 717.51,8.77 717.51,28.97 C717.51,48.02 717.7,61.65 717.7,77.89 C717.7,106.27 717.14,113.37 716.57,113.89 C716.2,114.45 714.31,114.82 700.94,115.2 C700.37,115.2 700.37,116.88 700.75,116.88 C718.08,116.69 727.31,116.5 750.29,116.5 C770.29,116.5 773.08,116.5 804.53,116.69 C805.29,116.69 805.66,116.5 805.66,115.76 C806.04,101.19 806.42,85.88 806.79,71.5" id="Shape" fill="#231F20" fill-rule="nonzero"></path>
            <path d="M75.41,78.61 C64.11,78.61 45.47,78.23 33.98,77.67 C40.2,63.3 49.05,43.5 56.39,26.33 L56.58,26.33 C60.53,36.78 67.31,55.08 75.41,78.61 Z M128.7,115.61 C118.9,115.05 117.77,114.87 116.46,113.61 C114.2,111.61 112.69,108.38 109.11,98.86 C87.11,38.74 79.36,15.78 74.84,1.4 C74.66,0.56 73.71,0.38 68.25,0.38 C65.05,0.38 64.49,0.38 64.11,0.75 C52.44,30.62 36.11,67.4 21.56,98.21 C18.92,104.21 15.91,108.67 13.27,111.28 C10.63,113.89 9.13,114.83 0.66,115.57 C0.28,115.76 0.28,116.88 0.66,116.88 C12.71,116.51 27.02,116.51 37.19,116.88 C37.56,116.88 37.75,115.39 37.37,115.39 C25.37,114.45 22.87,113.52 22.87,107.73 C22.958042,104.773764 23.5990979,101.860182 24.76,99.14 C27.58,91.86 29.09,87.94 32.1,81.59 C32.48,80.66 33.23,80.66 33.98,80.66 C39.44,80.47 44.15,80.47 51.68,80.47 C64.68,80.47 73.34,80.66 76.16,80.85 C79.16,89.44 83.51,101.76 85.39,107.36 C86.52,111.09 86.33,112.59 85.58,113.36 C84.45,114.47 81.43,114.85 74.28,115.22 C73.71,115.22 73.71,116.9 74.28,116.9 C85.2,116.53 92.35,116.71 100.28,116.71 C107.28,116.71 118.17,116.9 128.72,117.09 C129.07,117.07 129.07,115.57 128.7,115.57 L128.7,115.61 Z M227.53,62.61 C227.53,80.72 226.02,90.8 222.63,97.52 C216.8,109.29 205.12,114.89 189.87,114.89 C178.76,114.89 177.07,114.7 176.5,114.14 C175.93,113.58 175.56,110.78 175.56,103.87 C175.37,89.87 175.37,74.56 175.37,61.49 C175.37,48.42 175.56,17.05 175.75,10.49 C175.75,6.94 175.94,6.19 176.31,5.82 C176.5,5.45 178.2,5.26 189.87,5.26 C208.7,5.26 216.23,10.11 220.56,18.7 C225.08,27.45 227.53,42.94 227.53,62.55 L227.53,62.61 Z M255.77,55.33 C255.77,40.2 250.13,28.63 241.84,20.41 C230.54,9.21 212.84,3.24 191.57,3.24 C182.34,3.24 169.72,3.61 161.63,3.61 C153.15,3.61 143.55,3.42 132.82,3.24 C132.44,3.24 132.44,4.92 132.82,4.92 C145.82,5.1 147.13,5.29 147.51,5.85 C148.45,6.6 149.01,11.08 149.01,22.28 C149.01,35.35 148.82,55.7 148.82,68.21 C148.82,81.28 148.82,97.34 148.64,102 C148.64,110.78 148.07,113.58 147.51,114.14 C147.13,114.7 144.87,114.89 132.44,115.07 C131.88,115.07 131.88,116.94 132.44,116.94 C137.34,116.75 145.25,116.75 154.28,116.57 C163.7,116.57 179.89,116.94 190.28,116.94 C211.74,116.94 227.18,108.94 238.67,97.52 C248.05,88.13 255.77,75.81 255.77,55.27 L255.77,55.33 Z M373.83,4.48 C374.4,4.3 374.21,2.99 373.83,2.99 C359.71,3.55 352,3.36 336,3 C335.43,3 335.24,4.31 335.81,4.31 C349.37,5.43 352.57,7.85 352.57,13.31 C352.57,17.04 351.06,21.52 348.05,29.74 C341.26,47.43 330.9,73 322.81,93 L322.62,93 C313.39,68.36 304.73,45.39 294.75,17.76 C292.12,10.66 291.75,7.68 292.68,6.76 C293.61,5.84 295.68,5.64 305.86,5.08 C306.24,5.08 306.24,3.59 305.86,3.59 C285.71,3.4 264.44,3.78 249,2.84 C248.43,2.84 248.24,4.34 248.81,4.52 C257.66,5.46 259.16,5.83 260.48,7.14 C261.8,8.63 263.48,11.62 265.94,17.59 C284.58,64.64 297.76,98.25 305.11,119.16 C305.48,120.1 306.24,120.47 310.19,120.47 C314.33,120.47 315.09,120.1 315.46,119.35 C328.83,84.25 338.06,60.91 351.05,29.54 C356.32,16.84 359.52,11.62 362.73,8.26 C364.42,6.54 366.49,5.23 373.83,4.48 Z M414.32,78.61 C403.02,78.61 384.38,78.23 372.89,77.67 C379.11,63.3 388,43.5 395.3,26.33 L395.49,26.33 C399.44,36.78 406.22,55.08 414.32,78.61 Z M580.55,3 C573.96,3.38 569.44,3.57 564.73,3.57 C558.14,3.57 548.91,3 543.45,2.82 C542.88,2.82 542.69,4.31 543.26,4.31 C553.81,5.06 557.01,5.81 558.51,7.31 C561.15,9.93 562.66,19.82 562.66,44.65 C562.66,53.43 562.47,70.98 562.28,79.76 L562.09,79.76 C546.09,57.54 526.09,29.9 509.17,6 C506.91,2.8 506.53,2.8 505,2.8 C502.37,2.8 494.64,3.17 482,3.17 C476,3.17 467.54,3 461,3 C460.43,3 460.43,4.69 461,4.69 C470,5 473.76,6.16 475.83,8 C476.96,9.3 479.03,12.48 479.03,13 C478.84,44 479.6,63.41 479.6,86.94 C479.6,105.24 478.28,110.47 475.83,112.71 C474.64,113.89 473.28,114.71 464.64,115.33 C457.57,114.89 456.54,114.61 455.37,113.45 C453.11,111.45 451.6,108.22 448.02,98.7 C426.02,38.58 418.27,15.62 413.75,1.24 C413.56,0.49 412.62,0.31 407.16,0.31 C403.96,0.31 403.4,0.31 403.02,0.68 C391.35,30.62 375,67.4 360.47,98.21 C357.83,104.21 354.82,108.67 352.18,111.28 C349.54,113.89 348.04,114.83 339.57,115.57 C339.19,115.76 339.19,116.88 339.57,116.88 C351.62,116.51 365.93,116.51 376.09,116.88 C376.47,116.88 376.66,115.39 376.28,115.39 C364.28,114.45 361.78,113.52 361.78,107.73 C361.868042,104.773764 362.509098,101.860182 363.67,99.14 C366.49,91.86 368,87.94 371.01,81.59 C371.39,80.66 372.14,80.66 372.89,80.66 C378.35,80.47 383.06,80.47 390.59,80.47 C403.59,80.47 412.25,80.66 415.07,80.85 C418.07,89.44 422.41,101.76 424.3,107.36 C425.43,111.09 425.24,112.59 424.49,113.36 C423.36,114.47 420.34,114.85 413.19,115.22 C412.62,115.22 412.62,116.9 413.19,116.9 C424.11,116.53 431.26,116.71 439.19,116.71 L481.88,116.71 C490.16,116.71 494.12,116.71 502.59,117.27 C503.16,117.27 503.16,115.78 502.59,115.78 C489.41,114.84 487.15,114.28 486.02,112.97 C484.32,111.29 482.63,106.81 482.44,90.97 C482.25,66.51 481.31,36.97 481.5,14.97 L481.69,14.97 C504.1,44.84 534.43,85.73 556.69,119.16 C556.88,119.34 557.26,119.34 561.21,119.34 C565.16,119.34 565.36,119.16 565.36,118.78 C565.36,105.53 564.98,94.88 564.98,81.07 C564.98,69.07 565.36,55.67 565.36,43.16 C565.36,12.54 566.67,8.99 568.56,7.16 C569.5,6.23 571.01,5.67 580.8,4.74 C581.31,4.48 581.12,3 580.55,3 Z M677.55,106.08 C685.46,98.42 689.61,88.71 691.87,78.08 C692.06,77.33 690.36,77.14 690.17,77.7 C687.92,87.6 683.58,97.12 676.61,104.03 C670.77,109.82 660.79,114.49 649.3,114.49 C634.8,114.49 626.51,109.49 621.43,99.36 C617.09,90.96 615.43,79.01 615.43,62.95 C615.43,40.73 618.06,28.41 622.43,19.82 C626.95,10.82 634.67,4.7 648.04,4.7 C659.16,4.7 664.24,8.06 668.95,12.7 C675.17,18.86 681.19,30.99 686.28,44.62 C686.47,45.37 687.98,45.18 687.98,44.62 C687.6,34.92 687.6,14.75 687.98,2.05 C688.000301,1.72811964 687.815231,1.42847984 687.518325,1.30251974 C687.221419,1.17655963 686.877345,1.25171419 686.66,1.49 C678.93,10.08 677.43,12.13 675.92,12.13 C674.22,12.13 664.05,2.05 646.16,2.05 C628.08,2.05 614.33,9.71 602.65,21.28 C591.35,32.49 586.45,46.68 586.45,63.11 C586.21644,78.0556278 592.143974,92.4386698 602.84,102.88 C613.95,113.71 628.27,118.38 643.71,118.38 C659.15,118.38 670.4,113.34 677.55,106.06 L677.55,106.08 Z M806.76,71.51 C806.76,70.58 805.26,70.58 804.88,71.33 C800.55,88.33 794.88,101.39 789.25,106.99 C783.62,112.59 778.32,114.64 771.35,114.64 L757.6,114.64 C748.37,114.64 745.17,114.09 744.8,113.71 C744.23,113.15 743.85,109.23 743.85,80.1 C743.85,74.5 743.67,64.42 743.85,59 C746.68,58.82 751.2,58.82 758.73,58.82 C764.38,58.82 767.73,59.94 769.85,61.99 C772.3,64.42 774.37,69.46 776.85,82.16 C776.964998,82.5105043 777.312425,82.7302086 777.678388,82.6838533 C778.044351,82.6374979 778.326026,82.3381075 778.35,81.97 C777.6,69.97 777.79,51.72 778.16,33.61 C778.16,32.67 776.47,32.67 776.47,33.42 C774.59,46.49 772.7,49.29 770.07,51.91 C767.07,54.91 761.59,56.39 753.49,56.39 C750.1,56.39 747.27,56.39 743.88,56.2 L743.88,27.63 C743.88,8.21 743.88,6.16 744.26,5.97 C744.64,5.41 745.77,5.41 758.76,5.41 C776.09,5.41 780.05,6.91 785.7,12.32 C790.78,17.32 795.12,26.89 800.01,43.88 C800.39,44.81 801.71,44.62 801.71,43.88 C802.27,32.3 802.84,17.36 803.59,5.04 C803.78,3.36 803.4,2.8 802.46,2.8 C782.31,3.55 767.24,3.55 752.92,3.55 C744.64,3.55 711.68,3.17 702.45,2.98 C702.07,2.98 701.88,4.85 702.45,4.85 C713.94,5.23 716.57,5.6 716.95,5.97 C717.33,6.34 717.51,8.77 717.51,28.97 C717.51,48.02 717.7,61.65 717.7,77.89 C717.7,106.27 717.14,113.37 716.57,113.89 C716.2,114.45 714.31,114.82 700.94,115.2 C700.37,115.2 700.37,116.88 700.75,116.88 C718.08,116.69 727.31,116.5 750.29,116.5 C770.29,116.5 773.08,116.5 804.53,116.69 C805.29,116.69 805.66,116.5 805.66,115.76 C806,101.2 806.39,85.89 806.76,71.51 Z" id="Shape" stroke="#231F20" stroke-width="0.75"></path>
            <path d="M628.69,163.41 L617.32,163.41 L617.32,276.41 L695.84,276.41 L695.84,266 L628.69,266 L628.69,163.41 Z M524.3,240.41 L547.81,179.55 L548.11,179.55 L571.62,240.41 L524.3,240.41 Z M542.74,163.41 L498.18,276.41 L510.18,276.41 L520.32,250.8 L575.64,250.8 L585.78,276.41 L597.78,276.41 L553.22,163.41 L542.74,163.41 Z M373.21,219.9 C373.21,252.44 400.41,278.9 433.75,278.9 C460.95,278.9 484.15,260.97 491.52,236.57 L480.15,236.57 C472.948915,255.943074 454.417893,268.759033 433.75,268.66 C406.792981,268.66 384.94,246.807019 384.94,219.85 C384.94,192.892981 406.792981,171.04 433.75,171.04 C454.417893,170.940967 472.948915,183.756926 480.15,203.13 L491.52,203.13 C484.15,178.72 460.95,160.8 433.75,160.8 C400.41,160.8 373.21,187.31 373.21,219.85 L373.21,219.9 Z M247.3,219.85 C247.154155,199.93048 259.041128,181.891122 277.402669,174.166981 C295.764211,166.44284 316.971878,170.560291 331.109142,184.594048 C345.246405,198.627805 349.519586,219.804644 341.930581,238.222449 C334.341576,256.640254 316.390054,268.659466 296.47,268.66 C283.476011,268.739801 270.985245,263.641364 261.758547,254.491601 C252.531849,245.341839 247.329003,232.894201 247.3,219.9 L247.3,219.85 Z M235.63,219.9 C235.63,252.44 262.82,278.9 296.47,278.9 C329.97,278.9 357.32,252.39 357.32,219.9 C357.32,187.41 330,160.85 296.47,160.85 C262.82,160.85 235.63,187.36 235.63,219.9 Z M170.88,163.41 L159.5,163.41 L159.5,276.41 L238,276.41 L238,266 L170.88,266 L170.88,163.41 Z" id="Shape" fill="#EC1D24" fill-rule="nonzero"></path>
            <path d="M628.69,163.41 L617.32,163.41 L617.32,276.41 L695.84,276.41 L695.84,266 L628.69,266 L628.69,163.41 Z M524.3,240.41 L547.81,179.55 L548.11,179.55 L571.62,240.41 L524.3,240.41 Z M542.74,163.41 L498.18,276.41 L510.18,276.41 L520.32,250.8 L575.64,250.8 L585.78,276.41 L597.78,276.41 L553.22,163.41 L542.74,163.41 Z M373.21,219.9 C373.21,252.44 400.41,278.9 433.75,278.9 C460.95,278.9 484.15,260.97 491.52,236.57 L480.15,236.57 C472.948915,255.943074 454.417893,268.759033 433.75,268.66 C406.792981,268.66 384.94,246.807019 384.94,219.85 C384.94,192.892981 406.792981,171.04 433.75,171.04 C454.417893,170.940967 472.948915,183.756926 480.15,203.13 L491.52,203.13 C484.15,178.72 460.95,160.8 433.75,160.8 C400.41,160.85 373.21,187.36 373.21,219.9 Z M247.3,219.9 C247.154155,199.98048 259.041128,181.941122 277.402669,174.216981 C295.764211,166.49284 316.971878,170.610291 331.109142,184.644048 C345.246405,198.677805 349.519586,219.854644 341.930581,238.272449 C334.341576,256.690254 316.390054,268.709466 296.47,268.71 C283.467361,268.789831 270.969003,263.684546 261.740856,254.523963 C252.512708,245.36338 247.315719,232.902874 247.3,219.9 Z M235.63,219.9 C235.63,252.44 262.82,278.9 296.47,278.9 C329.97,278.9 357.32,252.39 357.32,219.9 C357.32,187.41 330,160.85 296.47,160.85 C262.82,160.85 235.63,187.36 235.63,219.9 Z M170.88,163.41 L159.5,163.41 L159.5,276.41 L238,276.41 L238,266 L170.88,266 L170.88,163.41 Z" id="Shape" stroke="#EC1D24" stroke-width="0.75"></path>
        </g>
    </g>
</svg>