<svg class="clbg" xmlns="http://www.w3.org/2000/svg" xmlns:xlink="http://www.w3.org/1999/xlink" viewBox="0 0 600.13 103.16" aria-labelledby="clevelandLogoTitle clevelandLogoDesc" role="img"><title id="clevelandLogoTitle">cleveland.com logo</title><desc id="clevelandLogoDesc">The CLEVELAND.com lettering on a black background</desc><defs><style>.clbg{background:#2A2A2A;}.cls-1{fill:none;}.cls-2{clip-path:url(#clip-path);}.cls-3{fill:#231f20;}.cls-4{fill:#2c5687;}.cls-5{fill:#95bca3;}.cls-6{fill:#fff;}</style><clipPath id="clip-path" transform="translate(-12.14 -18.92)"><rect class="cls-1" width="632.29" height="135.47"/></clipPath></defs><g id="Covering_northeast_ohio" data-name="Covering northeast ohio"><g class="cls-2"><path class="cls-6" d="M555.67,80.77h5.26V57.05c2.21-2,6.58-5.77,12.63-5.77,7.35,0,7.35,5.65,7.35,7.65V80.77h5.27V57.05c2.21-2,6.58-5.77,12.5-5.77,7.48,0,7.48,5.65,7.48,7.65V80.77h5.27V57.05c0-9.48-9.37-10.1-12.49-10.1-5,0-8.53,1.51-13.87,5.83-1.36-2.37-3.38-5.83-10.79-5.83-5.6,0-9.63,2.39-13.54,5.59V48h-5.07Zm-25.41-3.33c-8.92,0-14.38-5.2-14.38-13,0-6,4.1-13.12,14.38-13.12s14.31,7.16,14.31,13.12c0,7.84-5.4,13-14.31,13m0,4.34c11.58,0,19.59-6.41,19.59-18,0-9.34-7.62-16.81-19.59-16.81s-19.65,7.47-19.65,16.81c0,11.61,8.07,18,19.65,18M506.21,55.92c-2.6-4.27-7.48-9-17.76-9-10.54,0-19.52,6-19.52,17.32,0,9.85,7.61,17.51,19.84,17.51,10.61,0,15.56-4.39,18.55-9.41l-4.55-2.46c-3.58,6-8.34,7.53-13.87,7.53-8.32,0-14.7-5.45-14.7-12.67,0-9.6,7.22-13.49,14.25-13.49,8.53,0,11.71,4.83,13.21,7.16ZM455.49,80.77h6.7V73.49h-6.7ZM439.8,35.16V52.48c-4.69-3.33-8.2-5.53-15.23-5.53-14.58,0-19.52,10.1-19.52,17.69s5.47,17.14,18.6,17.14c7.82,0,11.27-2.14,16.41-6.16l.65,5.15h4.75c-.06-1-.39-5.27-.39-6.15V35.16Zm0,35.31c-3.25,3.4-9.11,7-14.77,7-9.24,0-14.71-5.9-14.71-12.67,0-10,7.55-13.49,14.58-13.49a19.88,19.88,0,0,1,14.9,6.47Zm-74.1,10.3H371V57.87c3.06-3.14,7.87-6.59,13.66-6.59,3.71,0,9.57,1.07,9.43,8.85V80.77h5.28V59.13c0-11.23-9.83-12.18-14.06-12.18-6,0-10.73,2.76-14.31,5.77V48H365.7Zm-13.55-8.28c-3.38,1.76-9.95,5.14-17.3,5.14-2.61,0-8.6-.69-8.6-5.83,0-6.35,10.41-7.72,25.9-9.16Zm5.27-14.93c0-8.41-8.84-10.61-16.59-10.61-11.84,0-15.55,4.7-17.51,7l4,2.65c1.7-1.89,4.89-5.53,13.92-5.53,5.41,0,10.94,1.69,10.94,6.15V58.5c-13.28,1.51-30.91,1.94-30.91,13.3,0,8.47,8.26,10,13.86,10a31.33,31.33,0,0,0,17-5,17.4,17.4,0,0,0,.66,4H358a25.82,25.82,0,0,1-.58-5.09Zm-47,23.21h5.28V35.16H310.4Zm-39.17-19.7c1.49-6,5.86-9.79,13.6-9.79,8.07,0,12.88,4.39,13.92,9.79Zm28.18,10c-2.15,2.58-5.08,6.4-13.87,6.4s-14-5.9-14.51-12h33.45c.26-13-9.24-18.45-20.11-18.45-10.47,0-18.61,6.84-18.61,17.25,0,10,7.81,17.58,19.26,17.58s15-4.28,18.48-7.85ZM242.6,80.77h5.27L265.31,48h-5.66L245.21,75.25,230.89,48h-5.72Zm-51.41-19.7c1.49-6,5.85-9.79,13.6-9.79,8.06,0,12.88,4.39,13.92,9.79Zm28.17,10c-2.15,2.58-5.08,6.4-13.87,6.4s-14-5.9-14.5-12h33.44c.26-13-9.23-18.45-20.11-18.45-10.47,0-18.61,6.84-18.61,17.25,0,10,7.81,17.58,19.26,17.58s15-4.28,18.49-7.85Zm-44.72,9.73h5.28V35.16h-5.28Zm-6.47-24.85c-2.61-4.27-7.49-9-17.77-9-10.54,0-19.52,6-19.52,17.32,0,9.85,7.61,17.51,19.84,17.51,10.61,0,15.56-4.39,18.55-9.41l-4.55-2.46c-3.58,6-8.33,7.53-13.86,7.53-8.33,0-14.71-5.45-14.71-12.67,0-9.6,7.22-13.49,14.25-13.49,8.52,0,11.71,4.83,13.21,7.16Z" transform="translate(-12.14 -18.92)"/><path class="cls-4" d="M104.46,64.25c0-25-20.66-45.33-46.16-45.33S12.14,39.21,12.14,64.25s20.67,45.33,46.16,45.33,46.16-20.3,46.16-45.33" transform="translate(-12.14 -18.92)"/><path class="cls-5" d="M86,64.23c0-15-12.38-27.13-27.66-27.13S30.65,49.25,30.65,64.23a27.65,27.65,0,0,0,55.3,0" transform="translate(-12.14 -18.92)"/><path class="cls-6" d="M82.81,64.23A24.51,24.51,0,1,0,58.29,88.31,24.29,24.29,0,0,0,82.81,64.23" transform="translate(-12.14 -18.92)"/><path class="cls-3" d="M67.15,70.26a8,8,0,0,1-1.05,1.13s-.07.06-.1.1a9.59,9.59,0,0,1-1.26.94c-.14.11-.29.21-.44.31l-.18.09a8.54,8.54,0,0,1-1.34.6l-.49.2-.55.14a8.59,8.59,0,0,1-1,.2c-.33,0-.65.1-1,.12h-.22A11.35,11.35,0,0,1,58.1,74l-.16,0a7.18,7.18,0,0,1-.81-.12,4.77,4.77,0,0,1-.54-.15l-.39-.11c-.37-.13-.73-.23-1.07-.38l-.06,0-.5-.26a10.21,10.21,0,0,1-1.15-.68c-.13-.09-.24-.2-.36-.29A10.07,10.07,0,0,1,52,71c-.1-.1-.17-.21-.27-.31a10.88,10.88,0,0,1-.92-1.2c-.07-.11-.12-.23-.19-.35a8.84,8.84,0,0,1-.68-1.38c0-.13-.08-.27-.13-.4a10.88,10.88,0,0,1-.39-1.49c0-.2,0-.41-.06-.6a8.92,8.92,0,0,1-.07-1.36c0-.26.05-.52.08-.79A7.74,7.74,0,0,1,49.51,62a1.4,1.4,0,0,1,.06-.24,6,6,0,0,1,.19-.6,7.59,7.59,0,0,1,.36-1c0-.08.07-.14.1-.21s.22-.41.34-.61.31-.56.49-.82l.19-.23c.14-.19.3-.37.46-.55a6.66,6.66,0,0,1,.56-.62c.13-.13.28-.24.42-.36l.42-.35c.21-.15.41-.32.63-.46s.45-.26.67-.39l.28-.15c.26-.13.51-.26.77-.36s.5-.17.75-.25a.88.88,0,0,1,.23-.07,7.51,7.51,0,0,1,1-.25c.22,0,.45-.06.68-.09l.16,0a10.21,10.21,0,0,1,1.46,0h.13c.36,0,.71.07,1.06.13a8.6,8.6,0,0,1,.88.19l.69.2.62.24a9.11,9.11,0,0,1,1,.47l.35.21c.23.14.45.29.67.45s.55.41.82.64l.33.32a11.37,11.37,0,0,1,.89,1,9.83,9.83,0,0,1,1.07,1.64l7.72-3.64a18.1,18.1,0,0,0-1.64-2.66h0L74,53.18c-.28-.36-.56-.7-.87-1l-.47-.51c-.07-.06-.12-.13-.19-.2l0,0-.87-.81-.46-.4q-.58-.48-1.23-.93l-.51-.34a14.16,14.16,0,0,0-1.29-.77l-.65-.33-.11-.06-.14-.07c-.33-.15-.67-.3-1-.43s-.49-.2-.74-.28l-.36-.13c-.31-.09-.62-.19-.93-.27l-.76-.19c-.19,0-.38-.08-.58-.12l-.41-.1c-.1,0-.2,0-.29,0-.29,0-.57-.09-.86-.12S60.43,46,60,46c-.25,0-.5,0-.75,0l-.17,0c-.14,0-.27,0-.41,0h-.11a17,17,0,0,0-2.12.19c-.17,0-.31.08-.47.12l-.72.12c-.43.1-.84.25-1.26.38a16.73,16.73,0,0,0-1.61.5l-.6.24c-.34.15-.66.35-1,.53a14.41,14.41,0,0,0-1.64.89l-.48.29c-.31.22-.57.48-.86.7a18.74,18.74,0,0,0-1.45,1.19c-.12.12-.26.23-.38.36-.3.3-.55.65-.83,1s-.75.84-1.08,1.31c-.1.14-.21.28-.31.43-.27.39-.47.84-.71,1.26s-.51.88-.72,1.34l-.25.54c-.19.46-.32,1-.47,1.46s-.31.9-.42,1.37c-.05.22-.11.42-.16.64s-.08.24-.1.37c-.08.45,0,.89-.09,1.33s-.1.83-.11,1.25c0,.19-.05.35-.05.53s0,.1,0,.15a15.91,15.91,0,0,0,.18,2.07c0,.18,0,.35,0,.53s.06.21.08.32,0,.08,0,.13,0,.39.07.57a17.8,17.8,0,0,0,.66,2.15c.07.21.14.44.22.65,0,.05,0,.1.05.15s.1.32.16.47a19.43,19.43,0,0,0,1.08,2c.11.18.21.37.33.56s.07.13.11.2.12.21.19.32a18.36,18.36,0,0,0,1.49,1.81c.13.15.25.3.38.44s.13.16.2.23.12.15.19.22A18.83,18.83,0,0,0,48,78.73c.17.13.32.26.49.38l.06,0c.14.09.26.22.41.32a16.14,16.14,0,0,0,1.88,1c.26.14.5.28.76.4s.39.21.6.29c.54.22,1.12.36,1.69.53.4.12.78.26,1.18.35s.49.12.74.18.19.05.29.07a17.65,17.65,0,0,0,2.88.23c.11,0,.2,0,.31,0s.48,0,.72,0l1,0c.31,0,.63-.06.94-.11h.17l.47-.11.48-.09c.33-.07.65-.13,1-.21s.86-.26,1.29-.41c.24-.08.49-.15.73-.25a16.52,16.52,0,0,0,1.55-.68l.35-.18a16,16,0,0,0,1.69-1,.21.21,0,0,0,.1-.06A18.48,18.48,0,0,0,74.28,75l0,0a19.94,19.94,0,0,0,1.49-2.36l-7.64-3.79a9.58,9.58,0,0,1-1,1.45" transform="translate(-12.14 -18.92)"/></g><path class="cls-6" d="M291.18,115.27l3.1.23c-.34,4.66-2.63,6.58-6.48,6.58-4.63,0-6.86-3.2-6.86-9.65,0-6.81,2.91-10.09,7.49-10.09,3.95,0,6,2.68,5.95,7l-3.12.26c0-3.46-1.22-4.55-3.07-4.55-2.23,0-3.85,1.92-3.85,7.36,0,5,1.17,7.12,3.67,7.12C290.06,119.48,291,117.89,291.18,115.27Z" transform="translate(-12.14 -18.92)"/><path class="cls-6" d="M296.9,112.28c0-6.4,2.71-9.94,7.49-9.94s6.84,3.46,6.84,9.6c0,6.55-2.26,10.14-7.26,10.14S296.9,118.6,296.9,112.28Zm11-.21c0-4.76-1-7-3.64-7s-4,2.34-4,7.15,1,7.31,3.84,7.31S307.9,117.06,307.9,112.07Z" transform="translate(-12.14 -18.92)"/><path class="cls-6" d="M328.05,102.68l-5.72,19.09h-4.08l-5.8-19.09h3.33l4.55,16.07h0l4.48-16.07Z" transform="translate(-12.14 -18.92)"/><path class="cls-6" d="M339.83,113.26h-6.14v5.86h7.41v2.65H330.47V102.68h10.14v2.66h-6.92v5.35h6.14Z" transform="translate(-12.14 -18.92)"/><path class="cls-6" d="M349.81,113.76h-2.16v8h-3.22V102.68h5.95c4.53,0,6.14,2.21,6.14,5.23,0,2.18-.65,4.45-3.54,5.41l4.08,8.45h-3.51Zm-.44-2.5c2.57,0,3.85-.7,3.85-3.17,0-2-1.07-2.81-3.33-2.81h-2.24v6Z" transform="translate(-12.14 -18.92)"/><path class="cls-6" d="M364.34,119.51h1.88v2.26H359.3v-2.26h1.85V104.94H359.3v-2.26h6.92v2.26h-1.88Z" transform="translate(-12.14 -18.92)"/><path class="cls-6" d="M379.53,121.77l-6.74-14.28h0v14.28h-3V102.68h3.92l6.5,14.23h0V102.68h3v19.09Z" transform="translate(-12.14 -18.92)"/><path class="cls-6" d="M394,112.28h6.32v9.8h-2.19l-.33-2.31a5,5,0,0,1-4.37,2.31c-4.42,0-6.71-3.22-6.71-9.44,0-7.12,3-10.3,7.51-10.3,3.9,0,5.93,2.55,5.91,7l-3.12.26c0-3.51-1.28-4.55-3-4.55-2.26,0-3.85,1.92-3.85,7.41,0,5,1.28,7.07,3.77,7.07,1.95,0,3.36-1.48,3.46-4.21v-.52H394Z" transform="translate(-12.14 -18.92)"/><path class="cls-6" d="M419.1,121.77l-6.73-14.28h0v14.28h-3V102.68h3.93l6.5,14.23h0V102.68h3v19.09Z" transform="translate(-12.14 -18.92)"/><path class="cls-6" d="M426.3,112.28c0-6.4,2.71-9.94,7.49-9.94s6.84,3.46,6.84,9.6c0,6.55-2.26,10.14-7.26,10.14S426.3,118.6,426.3,112.28Zm11-.21c0-4.76-1-7-3.64-7s-4,2.34-4,7.15,1,7.31,3.84,7.31S437.3,117.06,437.3,112.07Z" transform="translate(-12.14 -18.92)"/><path class="cls-6" d="M449.55,113.76h-2.16v8h-3.23V102.68h6c4.52,0,6.13,2.21,6.13,5.23,0,2.18-.65,4.45-3.53,5.41l4.08,8.45h-3.51Zm-.45-2.5c2.58,0,3.85-.7,3.85-3.17,0-2-1.07-2.81-3.33-2.81h-2.23v6Z" transform="translate(-12.14 -18.92)"/><path class="cls-6" d="M462.65,105.34h-4.92v-2.66h13v2.66h-4.89v16.43h-3.22Z" transform="translate(-12.14 -18.92)"/><path class="cls-6" d="M486.47,121.77h-3.25V113.6h-6.66v8.17h-3.22V102.68h3.22v8.22h6.66v-8.22h3.25Z" transform="translate(-12.14 -18.92)"/><path class="cls-6" d="M500.17,113.26H494v5.86h7.41v2.65H490.81V102.68H501v2.66H494v5.35h6.14Z" transform="translate(-12.14 -18.92)"/><path class="cls-6" d="M512.85,102.68l5.93,19.09h-3.33L514,116.93h-6.42l-1.41,4.84h-3.25l5.83-19.09Zm-2.08,3h0l-2.49,8.64h5.07Z" transform="translate(-12.14 -18.92)"/><path class="cls-6" d="M529.57,108.56c-.23-2.42-1.17-3.62-3.09-3.62s-2.71.94-2.71,2.5c0,1.82,1.41,2.44,3.15,3,2.65.8,6,1.48,6,5.69,0,3.88-2.74,5.93-6.35,5.93-4.08,0-6.29-1.82-6.66-6l3.28-.45c.23,2.45,1,3.75,3.46,3.75,2,0,3-1,3-2.73,0-2.06-1.64-2.71-3.51-3.25-2.6-.78-5.67-1.54-5.67-5.65,0-3.48,2.63-5.48,6.21-5.48s5.75,2,6,5.72Z" transform="translate(-12.14 -18.92)"/><path class="cls-6" d="M538.85,105.34h-4.91v-2.66h13v2.66h-4.89v16.43h-3.23Z" transform="translate(-12.14 -18.92)"/><path class="cls-6" d="M553.73,112.28c0-6.4,2.7-9.94,7.48-9.94s6.84,3.46,6.84,9.6c0,6.55-2.26,10.14-7.25,10.14S553.73,118.6,553.73,112.28Zm11-.21c0-4.76-1-7-3.64-7s-4,2.34-4,7.15,1,7.31,3.85,7.31S564.72,117.06,564.72,112.07Z" transform="translate(-12.14 -18.92)"/><path class="cls-6" d="M584.72,121.77h-3.25V113.6h-6.66v8.17h-3.22V102.68h3.22v8.22h6.66v-8.22h3.25Z" transform="translate(-12.14 -18.92)"/><path class="cls-6" d="M593.32,119.51h1.88v2.26h-6.92v-2.26h1.85V104.94h-1.85v-2.26h6.92v2.26h-1.88Z" transform="translate(-12.14 -18.92)"/><path class="cls-6" d="M598,112.28c0-6.4,2.71-9.94,7.49-9.94s6.84,3.46,6.84,9.6c0,6.55-2.26,10.14-7.26,10.14S598,118.6,598,112.28Zm11-.21c0-4.76-1-7-3.64-7s-4,2.34-4,7.15,1,7.31,3.84,7.31S609,117.06,609,112.07Z" transform="translate(-12.14 -18.92)"/></g></svg>