<?xml version="1.0" encoding="utf-8"?>
<!-- Generator: Adobe Illustrator 22.1.0, SVG Export Plug-In . SVG Version: 6.00 Build 0)  -->
<svg version="1.1" id="Layer_1" xmlns="http://www.w3.org/2000/svg" xmlns:xlink="http://www.w3.org/1999/xlink" x="0px" y="0px"
	 viewBox="0 0 188.6 189.4" style="enable-background:new 0 0 188.6 189.4;" xml:space="preserve">
<style type="text/css">
	.st0{fill:#2C5687;}
	.st1{fill:#95BCA3;}
	.st2{fill:#FFFFFF;}
	.st3{fill:#231F20;}
</style>
<title>200x200</title>
<desc>Created with Sketch.</desc>
<g id="_x32_00x200">
	<g id="Group-2-Copy" transform="translate(5.000000, 5.000000)">
		<path id="Shape" class="st0" d="M183.6,89.7C183.6,37.5,141.4-5,89.3-5S-5,37.4-5,89.7s42.2,94.7,94.3,94.7S183.6,142,183.6,89.7"
			/>
		<path id="Shape_1_" class="st1" d="M145.9,89.7c0-31.3-25.3-56.7-56.5-56.7S32.8,58.4,32.8,89.7c0,31.9,25.3,57.8,56.5,57.8
			s56.5-25.9,56.5-57.8"/>
		<path id="Shape_2_" class="st2" d="M139.3,89.7c0.4-20.8-11.6-39.7-30.3-47.9s-40.3-4.1-54.8,10.5s-19,36.7-11.3,55.9
			s26,31.8,46.3,31.8c13.2,0.1,25.8-5.1,35.2-14.5C133.9,116,139.2,103.1,139.3,89.7"/>
		<path id="Shape_3_" class="st3" d="M107.4,102.3c-0.6,0.9-1.4,1.6-2.1,2.4c0,0-0.1,0.1-0.2,0.2c-0.8,0.7-1.7,1.4-2.6,2
			c-0.3,0.2-0.6,0.4-0.9,0.6l-0.4,0.2c-0.9,0.5-1.8,0.9-2.7,1.3l-1,0.4l-1.1,0.3c-0.7,0.2-1.4,0.3-2,0.4c-0.7,0-1.3,0.2-2,0.3h-0.4
			c-1,0-1.9-0.1-2.9-0.2h-0.3c-0.6-0.1-1.1-0.1-1.7-0.3c-0.4-0.1-0.7-0.2-1.1-0.3l-0.8-0.2c-0.8-0.3-1.5-0.5-2.2-0.8h-0.1l-1-0.5
			c-0.8-0.4-1.6-0.9-2.3-1.4c-0.3-0.2-0.5-0.4-0.7-0.6c-0.8-0.6-1.5-1.4-2.2-2.1c-0.2-0.2-0.3-0.4-0.6-0.6c-0.7-0.8-1.3-1.6-1.9-2.5
			c-0.1-0.2-0.2-0.5-0.4-0.7c-0.5-0.9-1-1.9-1.4-2.9c0-0.3-0.2-0.6-0.3-0.8c-0.3-1-0.6-2.1-0.8-3.1c0-0.4,0-0.9-0.1-1.3
			c-0.1-0.9-0.2-1.9-0.1-2.8c0-0.5,0.1-1.1,0.2-1.7c0-0.8,0.1-1.6,0.3-2.3c0-0.2,0.1-0.3,0.1-0.5c0.1-0.4,0.2-0.8,0.4-1.3
			c0.2-0.7,0.4-1.4,0.7-2.1c0-0.2,0.1-0.3,0.2-0.4c0.1-0.1,0.4-0.9,0.7-1.3c0.2-0.4,0.6-1.2,1-1.7l0.4-0.5c0.3-0.4,0.6-0.8,0.9-1.1
			c0.4-0.5,0.7-0.9,1.1-1.3c0.3-0.3,0.6-0.5,0.9-0.8l0.9-0.7c0.4-0.3,0.8-0.7,1.3-1c0.4-0.3,0.9-0.5,1.4-0.8l0.6-0.3
			c0.5-0.3,1-0.5,1.6-0.8c0.5-0.2,1-0.4,1.5-0.5c0.1-0.1,0.3-0.1,0.5-0.1c0.7-0.2,1.4-0.4,2-0.5c0.4,0,0.9-0.1,1.4-0.2h0.3
			c1-0.1,2-0.1,3,0h0.3c0.7,0,1.5,0.1,2.2,0.3c0.6,0.1,1.2,0.2,1.8,0.4l1.4,0.4l1.3,0.5c0.7,0.3,1.4,0.6,2,1l0.7,0.4
			c0.5,0.3,0.9,0.6,1.4,0.9c0.4,0.3,1.1,0.9,1.7,1.3l0.7,0.7c0.6,0.7,1.3,1.4,1.8,2.1c0.8,1.1,1.6,2.2,2.2,3.4l15.8-7.6
			c-1-1.9-2.1-3.8-3.3-5.6l0,0l-0.7-0.8c-0.6-0.8-1.1-1.5-1.8-2.1l-1-1.1c-0.1-0.1-0.2-0.3-0.4-0.4l0,0l-1.8-1.7l-0.9-0.8
			c-0.8-0.7-1.6-1.3-2.5-1.9l-1-0.7c-0.8-0.6-1.7-1.1-2.6-1.6l-1.3-0.7l-0.2-0.1l-0.3-0.1c-0.7-0.3-1.4-0.6-2-0.9
			c-0.7-0.3-1-0.4-1.5-0.6l-0.7-0.3c-0.6-0.2-1.3-0.4-1.9-0.6l-1.6-0.4c-0.4,0-0.8-0.2-1.2-0.3l-0.8-0.2c-0.2,0-0.4,0-0.6,0
			c-0.6,0-1.2-0.2-1.8-0.3s-1.7-0.3-2.6-0.3c-0.5,0-1,0-1.5,0h-0.3c-0.3,0-0.6,0-0.8,0h-0.2c-1.5,0-2.9,0.2-4.3,0.4
			c-0.3,0-0.6,0.2-1,0.3l-1.5,0.3c-0.9,0.2-1.7,0.5-2.6,0.8c-1.1,0.3-2.2,0.6-3.3,1L76,54.8c-0.7,0.3-1.3,0.7-2,1.1
			c-1.2,0.5-2.3,1.2-3.3,1.9l-1,0.6c-0.6,0.5-1.2,1-1.8,1.5c-1,0.8-2,1.6-3,2.5c-0.2,0.3-0.5,0.5-0.8,0.8c-0.6,0.6-1.1,1.4-1.7,2.1
			s-1.5,1.8-2.2,2.7c-0.2,0.3-0.4,0.6-0.6,0.9c-0.6,0.8-1,1.8-1.5,2.6c-0.5,0.9-1,1.8-1.5,2.8l-0.5,1.1c-0.4,1-0.7,2.1-1,3.1
			c-0.3,1-0.6,1.9-0.9,2.9c-0.1,0.5-0.2,0.9-0.3,1.3c-0.1,0.5-0.2,0.5-0.2,0.8c-0.2,0.9,0,1.9-0.2,2.8s-0.2,1.7-0.2,2.6
			c0,0.4-0.1,0.7-0.1,1.1s0,0.2,0,0.3c0,1.4,0.2,2.9,0.4,4.3c0,0.4,0,0.7,0,1.1s0.1,0.4,0.2,0.7c0,0.2,0,0.2,0,0.3
			c0,0.1,0,0.8,0.1,1.2c0.4,1.5,0.8,3,1.3,4.5c0.1,0.4,0.3,0.9,0.4,1.4c0,0.1,0,0.2,0.1,0.3c0.1,0.1,0.2,0.7,0.3,1
			c0.7,1.4,1.4,2.8,2.2,4.2c0.2,0.4,0.4,0.8,0.7,1.2c0.2,0.4,0.1,0.3,0.2,0.4c0.1,0.1,0.2,0.4,0.4,0.7c0.9,1.3,2,2.6,3,3.8
			c0.3,0.3,0.5,0.6,0.8,0.9c0.3,0.3,0.3,0.3,0.4,0.5s0.2,0.3,0.4,0.5c1.3,1.1,2.6,2.1,4,3c0.3,0.3,0.7,0.5,1,0.8h0.1
			c0.3,0.2,0.5,0.5,0.8,0.7c1.2,0.8,2.5,1.5,3.8,2.1c0.5,0.3,1,0.6,1.6,0.8c0.5,0.3,0.8,0.4,1.2,0.6c1.1,0.5,2.3,0.8,3.5,1.1
			c0.8,0.3,1.6,0.5,2.4,0.7c0.8,0.2,1,0.3,1.5,0.4c0.5,0.1,0.4,0.1,0.6,0.1c1.9,0.3,3.9,0.5,5.9,0.5c0.2,0,0.4,0,0.6,0
			c0.2,0,1,0,1.5,0h2c0.6,0,1.3-0.1,1.9-0.2h0.3l1-0.2l1-0.2c0.7-0.1,1.3-0.3,2-0.4s1.8-0.5,2.6-0.9c0.5-0.2,1-0.3,1.5-0.5
			c1.1-0.4,2.1-0.9,3.2-1.4l0.7-0.4c1.2-0.6,2.3-1.3,3.5-2.1c0.1,0,0.1-0.1,0.2-0.1c3.6-2.5,6.7-5.6,9.2-9.2l0,0
			c1.1-1.6,2.1-3.2,3-4.9l-15.6-7.9C108.8,100.4,108.1,101.4,107.4,102.3"/>
	</g>
</g>
</svg>
