<svg width="42" height="42" viewBox="0 0 42 42" fill="none" xmlns="http://www.w3.org/2000/svg">
<circle cx="21" cy="21" r="20.5" fill="white" stroke="#2A2A2A"/>
<path d="M30.375 15.2773C29.6717 15.583 28.9275 15.7843 28.166 15.875C28.9663 15.4064 29.5681 14.6619 29.8586 13.7813C29.102 14.2237 28.2756 14.5341 27.4148 14.6992C27.0524 14.3194 26.6165 14.0172 26.1336 13.811C25.6507 13.6048 25.1309 13.499 24.6059 13.5C22.4801 13.5 20.7598 15.1953 20.7598 17.2852C20.7583 17.5758 20.7916 17.8657 20.859 18.1484C19.3346 18.077 17.842 17.6881 16.4766 17.0067C15.1111 16.3254 13.9029 15.3665 12.9293 14.1914C12.5877 14.7672 12.4071 15.4242 12.4062 16.0938C12.4062 17.4063 13.091 18.5664 14.125 19.2461C13.5124 19.2316 12.9123 19.0694 12.3758 18.7734V18.8203C12.3758 20.6563 13.7039 22.1836 15.4617 22.5313C15.1312 22.6194 14.7905 22.664 14.4484 22.6641C14.2057 22.6645 13.9635 22.6409 13.7254 22.5937C14.2141 24.0977 15.6363 25.1914 17.3211 25.2227C15.9521 26.2777 14.2713 26.8479 12.543 26.8437C12.2362 26.8433 11.9297 26.825 11.625 26.7891C13.3833 27.9118 15.4271 28.5057 17.5133 28.5C24.5977 28.5 28.468 22.7305 28.468 17.7266C28.468 17.5625 28.4637 17.3984 28.4559 17.2383C29.2071 16.7039 29.857 16.0399 30.375 15.2773V15.2773Z" fill="#2A2A2A"/>
</svg>
